<svg width="268" height="38" viewBox="0 0 268 38" fill="none" xmlns="http://www.w3.org/2000/svg">
<mask id="path-1-inside-1_415_549" fill="white">
<path d="M258.588 37.55C263.418 37.55 267.447 34.8338 267.447 30.1537C267.447 26.3761 265.483 24.4121 259.44 21.5956C253.899 18.9798 252.345 17.8181 252.345 15.4028C252.345 13.2382 254.309 11.8258 256.674 11.8258C260.351 11.8258 263.87 15.0434 265.583 19.7821H266.185L264.973 10.9733H264.521C264.421 13.3385 261.404 11.0736 256.816 11.0736C252.587 11.0736 248.759 14.0405 248.759 18.0186C248.759 21.5956 250.573 23.3507 255.955 25.8245C260.936 28.1897 263.151 29.8528 263.151 32.569C263.151 35.2851 260.886 36.7477 258.671 36.7477C255.554 36.7477 251.124 33.5802 248.96 27.8888H248.308L249.871 37.2993H250.272C250.573 34.3324 253.749 37.55 258.579 37.55M227.08 16.2051L228.843 21.1861L224.464 32.2096L218.572 16.2051C217.36 12.9875 217.72 12.4777 219.525 12.3774V11.7255H209.964V12.3774C211.527 12.5278 212.48 13.6895 213.742 17.208L221.138 37.4413C222.4 36.5387 223.854 36.0289 225.266 35.6278C224.865 33.8142 225.467 31.7499 226.98 28.081L229.245 22.3896L234.527 37.4413C235.738 36.8396 237.293 36.2797 238.605 35.8785C238.154 34.0649 238.755 32.0508 240.168 28.3819L244.647 16.9572C245.96 13.631 247.364 12.5278 249.077 12.3774V11.7255H240.519V12.3774C243.135 12.4777 244.497 13.8901 243.335 17.1077L237.794 32.36L232.153 16.5561C231.1 13.5391 231.752 12.4275 234.067 12.3774V11.7255H224.356V12.3774C225.208 12.4777 226.069 13.4889 227.072 16.2051M193.7 20.9855C193.7 15.6033 196.417 11.9762 199.893 11.9762C203.111 11.9762 205.175 14.893 205.175 18.4699C205.175 20.2835 204.573 20.7348 201.598 21.1861L193.742 22.5484L193.692 20.9855H193.7ZM200.854 37.55C205.635 37.55 209.463 34.3825 211.025 29.5436L210.725 29.3931C209.312 32.2597 206.546 33.9229 203.428 33.9229C197.637 33.9229 194.469 28.9418 193.817 23.2003L210.633 20.9855C210.432 14.2411 206.153 11.0653 200.762 11.0653C193.968 11.0653 189.037 16.6564 189.037 24.153C189.037 31.6496 194.168 37.5416 200.863 37.5416M181.323 37.7506C182.176 37.0485 184.39 35.9871 186.204 35.4857C185.401 33.9229 185.042 32.1594 185.092 29.694L185.393 5.53263C185.393 2.46545 186.806 1.45419 189.823 1.30376V0.65188H178.849V1.30376C182.577 1.45419 184.231 2.46545 184.231 5.48248L184.181 31.6078L164.408 0.65188H154.646V1.30376C157.914 1.45419 159.376 2.46545 159.326 5.48248L159.076 32.009C159.025 35.0762 157.513 36.0874 154.095 36.2379V36.8897H165.519V36.2379C161.992 36.0874 160.438 35.0762 160.388 32.0591L160.187 4.62167L181.331 37.7422L181.323 37.7506ZM137.53 20.9855C137.53 15.6033 140.246 11.9762 143.723 11.9762C146.941 11.9762 149.005 14.893 149.005 18.4699C149.005 20.2835 148.403 20.7348 145.428 21.1861L137.572 22.5484L137.522 20.9855H137.53ZM144.676 37.55C149.456 37.55 153.284 34.3825 154.847 29.5436L154.546 29.3931C153.133 32.2597 150.367 33.9229 147.25 33.9229C141.458 33.9229 138.291 28.9418 137.639 23.2003L154.454 20.9855C154.253 14.2411 149.974 11.0653 144.584 11.0653C137.789 11.0653 132.858 16.6564 132.858 24.153C132.858 31.6496 137.99 37.5416 144.684 37.5416M121.517 37.55C126.398 37.55 130.476 34.5329 132.089 29.694L131.638 29.4433C129.975 32.92 126.707 33.8727 124.292 33.8727C118.86 33.8727 114.881 29.1925 114.881 21.487C114.881 15.7454 117.798 11.9261 122.027 11.9261C125.403 11.9261 126.757 14.0405 126.757 15.7538C126.757 17.1662 126.055 18.0688 126.055 19.3308C126.055 20.9437 127.108 21.8965 128.571 21.8965C130.033 21.8965 131.287 20.6345 131.287 18.3195C131.287 14.8428 127.911 11.0736 122.328 11.0736C115.333 11.0736 110.143 17.0659 110.143 24.5625C110.143 32.0591 114.773 37.55 121.517 37.55ZM99.1193 36.8897H110.143V36.2379C108.078 36.0874 107.025 35.2851 107.025 32.9116V18.5619C107.025 13.4304 104.56 11.0653 100.732 11.0653C96.9045 11.0653 93.4362 13.631 91.3218 17.91H91.071L91.6728 11.0653H91.4722L83.2652 13.3301L83.3655 13.982C85.9312 13.5307 86.5831 14.7843 86.5831 17.0993V32.6525C86.5831 35.2684 85.6805 36.1292 83.4658 36.2295V36.8814H94.8403V36.2295C92.6255 36.0791 91.5725 35.2768 91.5725 32.9033V19.0132C93.4863 15.3861 96.1524 14.2327 97.8656 14.2327C100.381 14.2327 102.044 15.8457 102.044 19.7737V32.6609C102.044 35.2768 101.192 36.1376 99.1276 36.2379V36.8897H99.1193ZM66.0489 20.9855C66.0489 15.6033 68.765 11.9762 72.2417 11.9762C75.4593 11.9762 77.5236 14.893 77.5236 18.4699C77.5236 20.2835 76.9219 20.7348 73.9466 21.1861L66.0907 22.5484L66.0405 20.9855H66.0489ZM73.1945 37.55C77.9749 37.55 81.8026 34.3825 83.3655 29.5436L83.0646 29.3931C81.6522 32.2597 78.8859 33.9229 75.7686 33.9229C69.9769 33.9229 66.8094 28.9418 66.1575 23.2003L82.9727 20.9855C82.7721 14.2411 78.4931 11.0653 73.1025 11.0653C66.3079 11.0653 61.3771 16.6564 61.3771 24.153C61.3771 31.6496 66.5085 37.5416 73.2028 37.5416M55.3263 7.04532C57.0897 7.04532 58.5439 5.63292 58.5439 3.928C58.5439 2.22308 57.0813 0.710382 55.3263 0.710382C53.6631 0.710382 52.1588 2.17293 52.1588 3.928C52.1588 5.68306 53.6214 7.04532 55.3263 7.04532ZM50.0444 36.8897H61.118V36.2379C59.1038 36.0874 58.1511 35.2851 58.1511 32.9116V11.0653H57.9505L49.8939 13.3301V13.982C52.3594 13.7313 53.1617 14.8345 53.1617 17.2498V32.6525C53.1617 35.2684 52.2591 36.1292 50.0444 36.2295V36.8814V36.8897ZM39.1713 37.55C44.0521 37.55 48.1305 34.5329 49.7435 29.694L49.2922 29.4433C47.6291 32.92 44.3613 33.8727 41.946 33.8727C36.5137 33.8727 32.5355 29.1925 32.5355 21.487C32.5355 15.7454 35.4523 11.9261 39.6811 11.9261C43.0575 11.9261 44.4114 14.0405 44.4114 15.7538C44.4114 17.1662 43.7094 18.0688 43.7094 19.3308C43.7094 20.9437 44.7625 21.8965 46.225 21.8965C47.6876 21.8965 48.9412 20.6345 48.9412 18.3195C48.9412 14.8428 45.5648 11.0736 39.982 11.0736C32.9868 11.0736 27.7969 17.0659 27.7969 24.5625C27.7969 32.0591 32.4269 37.55 39.1713 37.55ZM13.397 37.55C19.9409 37.55 25.1726 33.5217 25.1726 27.1784C25.1726 21.7962 22.5066 19.2221 14.801 15.7036C7.65542 12.3774 4.88075 10.1626 4.88075 6.54388C4.88075 3.21762 7.54677 0.802314 11.4748 0.802314C16.0045 0.802314 21.3951 4.52973 23.3005 12.2771H23.9524L22.9997 0.401157H22.3979C22.3478 1.66313 21.8965 2.11443 21.136 2.11443C19.5731 2.11443 15.8541 0 11.6252 0C4.8306 0 0.852459 4.63002 0.852459 9.71135C0.852459 14.7927 3.66892 17.4169 10.3131 20.4339C18.1691 24.1112 20.9855 25.9749 20.9855 30.0952C20.9855 34.2154 17.5088 36.7393 13.5892 36.7393C8.70845 36.7393 2.4153 30.9978 0.651881 23.1H0L1.36226 37.0402H1.964C2.01414 35.4773 2.51559 34.9759 3.4767 34.9759C5.34041 34.9759 8.80874 37.5416 13.397 37.5416"/>
</mask>
<path d="M258.588 37.55C263.418 37.55 267.447 34.8338 267.447 30.1537C267.447 26.3761 265.483 24.4121 259.44 21.5956C253.899 18.9798 252.345 17.8181 252.345 15.4028C252.345 13.2382 254.309 11.8258 256.674 11.8258C260.351 11.8258 263.87 15.0434 265.583 19.7821H266.185L264.973 10.9733H264.521C264.421 13.3385 261.404 11.0736 256.816 11.0736C252.587 11.0736 248.759 14.0405 248.759 18.0186C248.759 21.5956 250.573 23.3507 255.955 25.8245C260.936 28.1897 263.151 29.8528 263.151 32.569C263.151 35.2851 260.886 36.7477 258.671 36.7477C255.554 36.7477 251.124 33.5802 248.96 27.8888H248.308L249.871 37.2993H250.272C250.573 34.3324 253.749 37.55 258.579 37.55M227.08 16.2051L228.843 21.1861L224.464 32.2096L218.572 16.2051C217.36 12.9875 217.72 12.4777 219.525 12.3774V11.7255H209.964V12.3774C211.527 12.5278 212.48 13.6895 213.742 17.208L221.138 37.4413C222.4 36.5387 223.854 36.0289 225.266 35.6278C224.865 33.8142 225.467 31.7499 226.98 28.081L229.245 22.3896L234.527 37.4413C235.738 36.8396 237.293 36.2797 238.605 35.8785C238.154 34.0649 238.755 32.0508 240.168 28.3819L244.647 16.9572C245.96 13.631 247.364 12.5278 249.077 12.3774V11.7255H240.519V12.3774C243.135 12.4777 244.497 13.8901 243.335 17.1077L237.794 32.36L232.153 16.5561C231.1 13.5391 231.752 12.4275 234.067 12.3774V11.7255H224.356V12.3774C225.208 12.4777 226.069 13.4889 227.072 16.2051M193.7 20.9855C193.7 15.6033 196.417 11.9762 199.893 11.9762C203.111 11.9762 205.175 14.893 205.175 18.4699C205.175 20.2835 204.573 20.7348 201.598 21.1861L193.742 22.5484L193.692 20.9855H193.7ZM200.854 37.55C205.635 37.55 209.463 34.3825 211.025 29.5436L210.725 29.3931C209.312 32.2597 206.546 33.9229 203.428 33.9229C197.637 33.9229 194.469 28.9418 193.817 23.2003L210.633 20.9855C210.432 14.2411 206.153 11.0653 200.762 11.0653C193.968 11.0653 189.037 16.6564 189.037 24.153C189.037 31.6496 194.168 37.5416 200.863 37.5416M181.323 37.7506C182.176 37.0485 184.39 35.9871 186.204 35.4857C185.401 33.9229 185.042 32.1594 185.092 29.694L185.393 5.53263C185.393 2.46545 186.806 1.45419 189.823 1.30376V0.65188H178.849V1.30376C182.577 1.45419 184.231 2.46545 184.231 5.48248L184.181 31.6078L164.408 0.65188H154.646V1.30376C157.914 1.45419 159.376 2.46545 159.326 5.48248L159.076 32.009C159.025 35.0762 157.513 36.0874 154.095 36.2379V36.8897H165.519V36.2379C161.992 36.0874 160.438 35.0762 160.388 32.0591L160.187 4.62167L181.331 37.7422L181.323 37.7506ZM137.53 20.9855C137.53 15.6033 140.246 11.9762 143.723 11.9762C146.941 11.9762 149.005 14.893 149.005 18.4699C149.005 20.2835 148.403 20.7348 145.428 21.1861L137.572 22.5484L137.522 20.9855H137.53ZM144.676 37.55C149.456 37.55 153.284 34.3825 154.847 29.5436L154.546 29.3931C153.133 32.2597 150.367 33.9229 147.25 33.9229C141.458 33.9229 138.291 28.9418 137.639 23.2003L154.454 20.9855C154.253 14.2411 149.974 11.0653 144.584 11.0653C137.789 11.0653 132.858 16.6564 132.858 24.153C132.858 31.6496 137.99 37.5416 144.684 37.5416M121.517 37.55C126.398 37.55 130.476 34.5329 132.089 29.694L131.638 29.4433C129.975 32.92 126.707 33.8727 124.292 33.8727C118.86 33.8727 114.881 29.1925 114.881 21.487C114.881 15.7454 117.798 11.9261 122.027 11.9261C125.403 11.9261 126.757 14.0405 126.757 15.7538C126.757 17.1662 126.055 18.0688 126.055 19.3308C126.055 20.9437 127.108 21.8965 128.571 21.8965C130.033 21.8965 131.287 20.6345 131.287 18.3195C131.287 14.8428 127.911 11.0736 122.328 11.0736C115.333 11.0736 110.143 17.0659 110.143 24.5625C110.143 32.0591 114.773 37.55 121.517 37.55ZM99.1193 36.8897H110.143V36.2379C108.078 36.0874 107.025 35.2851 107.025 32.9116V18.5619C107.025 13.4304 104.56 11.0653 100.732 11.0653C96.9045 11.0653 93.4362 13.631 91.3218 17.91H91.071L91.6728 11.0653H91.4722L83.2652 13.3301L83.3655 13.982C85.9312 13.5307 86.5831 14.7843 86.5831 17.0993V32.6525C86.5831 35.2684 85.6805 36.1292 83.4658 36.2295V36.8814H94.8403V36.2295C92.6255 36.0791 91.5725 35.2768 91.5725 32.9033V19.0132C93.4863 15.3861 96.1524 14.2327 97.8656 14.2327C100.381 14.2327 102.044 15.8457 102.044 19.7737V32.6609C102.044 35.2768 101.192 36.1376 99.1276 36.2379V36.8897H99.1193ZM66.0489 20.9855C66.0489 15.6033 68.765 11.9762 72.2417 11.9762C75.4593 11.9762 77.5236 14.893 77.5236 18.4699C77.5236 20.2835 76.9219 20.7348 73.9466 21.1861L66.0907 22.5484L66.0405 20.9855H66.0489ZM73.1945 37.55C77.9749 37.55 81.8026 34.3825 83.3655 29.5436L83.0646 29.3931C81.6522 32.2597 78.8859 33.9229 75.7686 33.9229C69.9769 33.9229 66.8094 28.9418 66.1575 23.2003L82.9727 20.9855C82.7721 14.2411 78.4931 11.0653 73.1025 11.0653C66.3079 11.0653 61.3771 16.6564 61.3771 24.153C61.3771 31.6496 66.5085 37.5416 73.2028 37.5416M55.3263 7.04532C57.0897 7.04532 58.5439 5.63292 58.5439 3.928C58.5439 2.22308 57.0813 0.710382 55.3263 0.710382C53.6631 0.710382 52.1588 2.17293 52.1588 3.928C52.1588 5.68306 53.6214 7.04532 55.3263 7.04532ZM50.0444 36.8897H61.118V36.2379C59.1038 36.0874 58.1511 35.2851 58.1511 32.9116V11.0653H57.9505L49.8939 13.3301V13.982C52.3594 13.7313 53.1617 14.8345 53.1617 17.2498V32.6525C53.1617 35.2684 52.2591 36.1292 50.0444 36.2295V36.8814V36.8897ZM39.1713 37.55C44.0521 37.55 48.1305 34.5329 49.7435 29.694L49.2922 29.4433C47.6291 32.92 44.3613 33.8727 41.946 33.8727C36.5137 33.8727 32.5355 29.1925 32.5355 21.487C32.5355 15.7454 35.4523 11.9261 39.6811 11.9261C43.0575 11.9261 44.4114 14.0405 44.4114 15.7538C44.4114 17.1662 43.7094 18.0688 43.7094 19.3308C43.7094 20.9437 44.7625 21.8965 46.225 21.8965C47.6876 21.8965 48.9412 20.6345 48.9412 18.3195C48.9412 14.8428 45.5648 11.0736 39.982 11.0736C32.9868 11.0736 27.7969 17.0659 27.7969 24.5625C27.7969 32.0591 32.4269 37.55 39.1713 37.55ZM13.397 37.55C19.9409 37.55 25.1726 33.5217 25.1726 27.1784C25.1726 21.7962 22.5066 19.2221 14.801 15.7036C7.65542 12.3774 4.88075 10.1626 4.88075 6.54388C4.88075 3.21762 7.54677 0.802314 11.4748 0.802314C16.0045 0.802314 21.3951 4.52973 23.3005 12.2771H23.9524L22.9997 0.401157H22.3979C22.3478 1.66313 21.8965 2.11443 21.136 2.11443C19.5731 2.11443 15.8541 0 11.6252 0C4.8306 0 0.852459 4.63002 0.852459 9.71135C0.852459 14.7927 3.66892 17.4169 10.3131 20.4339C18.1691 24.1112 20.9855 25.9749 20.9855 30.0952C20.9855 34.2154 17.5088 36.7393 13.5892 36.7393C8.70845 36.7393 2.4153 30.9978 0.651881 23.1H0L1.36226 37.0402H1.964C2.01414 35.4773 2.51559 34.9759 3.4767 34.9759C5.34041 34.9759 8.80874 37.5416 13.397 37.5416" fill="white"/>
<path d="M259.44 21.5956L259.049 22.4248L259.053 22.4267L259.44 21.5956ZM265.583 19.7821L264.72 20.0938L264.939 20.699H265.583V19.7821ZM266.185 19.7821V20.699H267.236L267.093 19.6571L266.185 19.7821ZM264.973 10.9733L265.881 10.8484L265.772 10.0564H264.973V10.9733ZM264.521 10.9733V10.0564H263.643L263.605 10.9345L264.521 10.9733ZM255.955 25.8245L256.348 24.9961L256.338 24.9913L255.955 25.8245ZM248.96 27.8888L249.817 27.5628L249.592 26.9718H248.96V27.8888ZM248.308 27.8888V26.9718H247.226L247.403 28.039L248.308 27.8888ZM249.871 37.2993L248.966 37.4495L249.094 38.2162H249.871V37.2993ZM250.272 37.2993V38.2162H251.101L251.184 37.3918L250.272 37.2993ZM228.843 21.1861L229.696 21.5247L229.823 21.2047L229.708 20.8801L228.843 21.1861ZM224.464 32.2096L223.604 32.5264L224.432 34.7752L225.316 32.5481L224.464 32.2096ZM218.572 16.2051L219.433 15.8883L219.43 15.8819L218.572 16.2051ZM219.525 12.3774L219.576 13.2929L220.442 13.2448V12.3774H219.525ZM219.525 11.7255H220.442V10.8085H219.525V11.7255ZM209.964 11.7255V10.8085H209.047V11.7255H209.964ZM209.964 12.3774H209.047V13.2103L209.876 13.2901L209.964 12.3774ZM213.742 17.208L212.878 17.5175L212.88 17.5228L213.742 17.208ZM221.138 37.4413L220.277 37.7562L220.691 38.8886L221.671 38.1872L221.138 37.4413ZM225.266 35.6278L225.517 36.5098L226.348 36.2737L226.162 35.4297L225.266 35.6278ZM226.98 28.081L227.828 28.4305L227.832 28.42L226.98 28.081ZM229.245 22.3896L230.11 22.086L229.299 19.7741L228.393 22.0506L229.245 22.3896ZM234.527 37.4413L233.661 37.745L234.005 38.7241L234.934 38.2626L234.527 37.4413ZM238.605 35.8785L238.873 36.7554L239.705 36.5011L239.495 35.6571L238.605 35.8785ZM240.168 28.3819L239.314 28.0471L239.312 28.0524L240.168 28.3819ZM244.647 16.9572L243.794 16.6208L243.794 16.6225L244.647 16.9572ZM249.077 12.3774L249.157 13.2908L249.994 13.2173V12.3774H249.077ZM249.077 11.7255H249.994V10.8085H249.077V11.7255ZM240.519 11.7255V10.8085H239.602V11.7255H240.519ZM240.519 12.3774H239.602V13.2598L240.484 13.2936L240.519 12.3774ZM243.335 17.1077L244.197 17.4208L244.198 17.4191L243.335 17.1077ZM237.794 32.36L236.931 32.6683L237.787 35.0663L238.656 32.6731L237.794 32.36ZM232.153 16.5561L231.287 16.8583L231.289 16.8643L232.153 16.5561ZM234.067 12.3774L234.087 13.2941L234.984 13.2747V12.3774H234.067ZM234.067 11.7255H234.984V10.8085H234.067V11.7255ZM224.356 11.7255V10.8085H223.439V11.7255H224.356ZM224.356 12.3774H223.439V13.1928L224.248 13.288L224.356 12.3774ZM193.7 20.9855V21.9025H194.617V20.9855H193.7ZM201.598 21.1861L201.461 20.2795L201.451 20.281L201.442 20.2827L201.598 21.1861ZM193.742 22.5484L192.826 22.5778L192.86 23.6321L193.899 23.4518L193.742 22.5484ZM193.692 20.9855V20.0686H192.745L192.776 21.0149L193.692 20.9855ZM211.025 29.5436L211.898 29.8254L212.14 29.0757L211.435 28.7234L211.025 29.5436ZM210.725 29.3931L211.135 28.573L210.31 28.1605L209.902 28.9879L210.725 29.3931ZM193.817 23.2003L193.698 22.2912L192.805 22.4088L192.906 23.3037L193.817 23.2003ZM210.633 20.9855L210.752 21.8946L211.574 21.7864L211.549 20.9583L210.633 20.9855ZM181.323 37.7506L180.675 37.1017L181.906 38.4584L181.323 37.7506ZM186.204 35.4857L186.448 36.3695L187.534 36.0692L187.02 35.0669L186.204 35.4857ZM185.092 29.694L186.009 29.7126L186.009 29.7054L185.092 29.694ZM185.393 5.53263L186.31 5.54404V5.53263H185.393ZM189.823 1.30376L189.868 2.21957L190.74 2.17612V1.30376H189.823ZM189.823 0.65188H190.74V-0.265063H189.823V0.65188ZM178.849 0.65188V-0.265063H177.932V0.65188H178.849ZM178.849 1.30376H177.932V2.18444L178.812 2.21996L178.849 1.30376ZM184.231 5.48248L185.148 5.48424V5.48248H184.231ZM184.181 31.6078L183.409 32.1015L185.092 34.7373L185.098 31.6096L184.181 31.6078ZM164.408 0.65188L165.18 0.158274L164.91 -0.265063H164.408V0.65188ZM154.646 0.65188V-0.265063H153.729V0.65188H154.646ZM154.646 1.30376H153.729V2.17946L154.604 2.21973L154.646 1.30376ZM159.326 5.48248L158.409 5.46724L158.409 5.47382L159.326 5.48248ZM159.076 32.009L159.992 32.024L159.992 32.0177L159.076 32.009ZM154.095 36.2379L154.054 35.3218L153.178 35.3604V36.2379H154.095ZM154.095 36.8897H153.178V37.8067H154.095V36.8897ZM165.519 36.8897V37.8067H166.436V36.8897H165.519ZM165.519 36.2379H166.436V35.3592L165.558 35.3218L165.519 36.2379ZM160.388 32.0591L159.471 32.0659L159.471 32.0744L160.388 32.0591ZM160.187 4.62167L160.96 4.12826L159.247 1.44491L159.27 4.62837L160.187 4.62167ZM181.331 37.7422L181.979 38.3911L182.501 37.8702L182.104 37.2488L181.331 37.7422ZM137.53 20.9855V21.9025H138.447V20.9855H137.53ZM145.428 21.1861L145.29 20.2795L145.281 20.281L145.271 20.2827L145.428 21.1861ZM137.572 22.5484L136.655 22.5778L136.689 23.6321L137.729 23.4518L137.572 22.5484ZM137.522 20.9855V20.0686H136.575L136.605 21.0149L137.522 20.9855ZM154.847 29.5436L155.719 29.8254L155.961 29.0757L155.257 28.7234L154.847 29.5436ZM154.546 29.3931L154.956 28.573L154.131 28.1605L153.723 28.9879L154.546 29.3931ZM137.639 23.2003L137.519 22.2912L136.626 22.4088L136.728 23.3037L137.639 23.2003ZM154.454 20.9855L154.574 21.8946L155.395 21.7864L155.37 20.9583L154.454 20.9855ZM132.089 29.694L132.959 29.984L133.2 29.262L132.535 28.8924L132.089 29.694ZM131.638 29.4433L132.083 28.6417L131.231 28.1684L130.811 29.0476L131.638 29.4433ZM110.143 36.8897V37.8067H111.06V36.8897H110.143ZM110.143 36.2379H111.06V35.3853L110.209 35.3234L110.143 36.2379ZM91.3218 17.91V18.8269H91.8915L92.1438 18.3162L91.3218 17.91ZM91.071 17.91L90.1576 17.8297L90.07 18.8269H91.071V17.91ZM91.6728 11.0653L92.5862 11.1456L92.6739 10.1483H91.6728V11.0653ZM91.4722 11.0653V10.1483H91.348L91.2283 10.1814L91.4722 11.0653ZM83.2652 13.3301L83.0213 12.4462L82.2349 12.6632L82.3589 13.4695L83.2652 13.3301ZM83.3655 13.982L82.4592 14.1214L82.6017 15.0474L83.5243 14.8851L83.3655 13.982ZM83.4658 36.2295L83.4243 35.3135L82.5488 35.3531V36.2295H83.4658ZM83.4658 36.8814H82.5488V37.7983H83.4658V36.8814ZM94.8403 36.8814V37.7983H95.7572V36.8814H94.8403ZM94.8403 36.2295H95.7572V35.3727L94.9024 35.3147L94.8403 36.2295ZM91.5725 19.0132L90.7615 18.5853L90.6555 18.7861V19.0132H91.5725ZM99.1276 36.2379L99.0831 35.322L98.2107 35.3644V36.2379H99.1276ZM99.1276 36.8897V37.8067H100.045V36.8897H99.1276ZM66.0489 20.9855V21.9025H66.9658V20.9855H66.0489ZM73.9466 21.1861L73.8091 20.2795L73.7995 20.281L73.79 20.2827L73.9466 21.1861ZM66.0907 22.5484L65.1742 22.5778L65.208 23.6321L66.2473 23.4518L66.0907 22.5484ZM66.0405 20.9855V20.0686H65.0937L65.124 21.0149L66.0405 20.9855ZM83.3655 29.5436L84.238 29.8254L84.4802 29.0757L83.7756 28.7234L83.3655 29.5436ZM83.0646 29.3931L83.4747 28.573L82.6497 28.1605L82.2421 28.9879L83.0646 29.3931ZM66.1575 23.2003L66.0378 22.2912L65.1448 22.4088L65.2464 23.3037L66.1575 23.2003ZM82.9727 20.9855L83.0924 21.8946L83.9139 21.7864L83.8892 20.9583L82.9727 20.9855ZM50.0444 36.8897H49.1274V37.8067H50.0444V36.8897ZM61.118 36.8897V37.8067H62.0349V36.8897H61.118ZM61.118 36.2379H62.0349V35.3869L61.1863 35.3235L61.118 36.2379ZM58.1511 11.0653H59.068V10.1483H58.1511V11.0653ZM57.9505 11.0653V10.1483H57.8241L57.7024 10.1825L57.9505 11.0653ZM49.8939 13.3301L49.6458 12.4474L48.977 12.6354V13.3301H49.8939ZM49.8939 13.982H48.977V14.9969L49.9867 14.8942L49.8939 13.982ZM50.0444 36.2295L50.0029 35.3135L49.1274 35.3531V36.2295H50.0444ZM49.7435 29.694L50.6134 29.984L50.854 29.262L50.1888 28.8924L49.7435 29.694ZM49.2922 29.4433L49.7375 28.6417L48.8856 28.1684L48.465 29.0476L49.2922 29.4433ZM14.801 15.7036L14.4141 16.5349L14.4202 16.5377L14.801 15.7036ZM23.3005 12.2771L22.4101 12.4961L22.5818 13.194H23.3005V12.2771ZM23.9524 12.2771V13.194H24.9459L24.8664 12.2038L23.9524 12.2771ZM22.9997 0.401157L23.9137 0.327831L23.846 -0.515786L22.9997 -0.515786V0.401157ZM22.3979 0.401157V-0.515786H21.5167L21.4817 0.364751L22.3979 0.401157ZM10.3131 20.4339L10.7018 19.6034L10.6922 19.599L10.3131 20.4339ZM0.651881 23.1L1.54679 22.9002L1.38667 22.183H0.651881V23.1ZM0 23.1V22.183H-1.01092L-0.912596 23.1891L0 23.1ZM1.36226 37.0402L0.449667 37.1294L0.530557 37.9571H1.36226V37.0402ZM1.964 37.0402V37.9571H2.85199L2.88047 37.0696L1.964 37.0402ZM258.588 37.55V38.4669C261.165 38.4669 263.591 37.7434 265.395 36.3282C267.218 34.8972 268.363 32.7862 268.363 30.1537H267.447H266.53C266.53 32.2013 265.661 33.7885 264.262 34.8855C262.844 35.9985 260.841 36.633 258.588 36.633V37.55ZM267.447 30.1537H268.363C268.363 28.0679 267.807 26.3946 266.375 24.8835C265 23.4327 262.859 22.1776 259.827 20.7645L259.44 21.5956L259.053 22.4267C262.064 23.8301 263.926 24.9652 265.044 26.1449C266.104 27.2643 266.53 28.4618 266.53 30.1537H267.447ZM259.44 21.5956L259.832 20.7664C257.043 19.4502 255.382 18.5532 254.408 17.7254C253.939 17.326 253.665 16.9713 253.502 16.6283C253.341 16.2887 253.262 15.9039 253.262 15.4028H252.345H251.428C251.428 16.1093 251.542 16.7755 251.846 17.4147C252.148 18.0506 252.609 18.6027 253.221 19.1226C254.409 20.1334 256.296 21.1252 259.049 22.4248L259.44 21.5956ZM252.345 15.4028H253.262C253.262 13.9316 254.605 12.7427 256.674 12.7427V11.8258V10.9088C254.012 10.9088 251.428 12.5447 251.428 15.4028H252.345ZM256.674 11.8258V12.7427C259.801 12.7427 263.072 15.5352 264.72 20.0938L265.583 19.7821L266.445 19.4703C264.667 14.5516 260.901 10.9088 256.674 10.9088V11.8258ZM265.583 19.7821V20.699H266.185V19.7821V18.8651H265.583V19.7821ZM266.185 19.7821L267.093 19.6571L265.881 10.8484L264.973 10.9733L264.064 11.0983L265.276 19.907L266.185 19.7821ZM264.973 10.9733V10.0564H264.521V10.9733V11.8903H264.973V10.9733ZM264.521 10.9733L263.605 10.9345C263.597 11.1408 263.559 11.1926 263.569 11.1766C263.593 11.1364 263.636 11.115 263.636 11.1151C263.609 11.1238 263.516 11.1431 263.309 11.1295C263.108 11.1162 262.855 11.0765 262.533 11.0116C261.283 10.7592 259.231 10.1567 256.816 10.1567V11.0736V11.9906C258.989 11.9906 260.74 12.5204 262.17 12.8092C262.519 12.8795 262.866 12.9382 263.189 12.9594C263.506 12.9802 263.863 12.97 264.205 12.8585C264.573 12.7383 264.904 12.5058 265.131 12.1368C265.343 11.7919 265.421 11.3971 265.438 11.0122L264.521 10.9733ZM256.816 11.0736V10.1567C252.243 10.1567 247.842 13.3853 247.842 18.0186H248.759H249.676C249.676 14.6957 252.931 11.9906 256.816 11.9906V11.0736ZM248.759 18.0186H247.842C247.842 19.9965 248.357 21.5691 249.671 22.9641C250.929 24.2986 252.872 25.4166 255.572 26.6576L255.955 25.8245L256.338 24.9913C253.656 23.7586 252.001 22.7621 251.006 21.7064C250.068 20.7112 249.676 19.6178 249.676 18.0186H248.759ZM255.955 25.8245L255.562 26.6528C258.05 27.8341 259.741 28.7939 260.81 29.7489C261.833 30.6633 262.234 31.5233 262.234 32.569H263.151H264.068C264.068 30.8985 263.361 29.5688 262.032 28.3813C260.748 27.2344 258.842 26.18 256.348 24.9962L255.955 25.8245ZM263.151 32.569H262.234C262.234 34.6321 260.54 35.8307 258.671 35.8307V36.7477V37.6646C261.232 37.6646 264.068 35.9381 264.068 32.569H263.151ZM258.671 36.7477V35.8307C257.4 35.8307 255.716 35.1689 254.052 33.754C252.406 32.3539 250.846 30.2688 249.817 27.5628L248.96 27.8888L248.103 28.2147C249.238 31.2002 250.975 33.5445 252.864 35.151C254.736 36.7428 256.826 37.6646 258.671 37.6646V36.7477ZM248.96 27.8888V26.9718H248.308V27.8888V28.8057H248.96V27.8888ZM248.308 27.8888L247.403 28.039L248.966 37.4495L249.871 37.2993L250.775 37.149L249.213 27.7386L248.308 27.8888ZM249.871 37.2993V38.2162H250.272V37.2993V36.3823H249.871V37.2993ZM250.272 37.2993L251.184 37.3918C251.214 37.0964 251.272 36.9803 251.29 36.9515C251.296 36.9421 251.293 36.9496 251.278 36.9605C251.264 36.9712 251.255 36.9725 251.263 36.9702C251.293 36.9619 251.394 36.9466 251.62 36.9812C251.841 37.0149 252.114 37.0849 252.462 37.1898C253.81 37.5969 255.99 38.4669 258.579 38.4669V37.55V36.633C256.338 36.633 254.515 35.8943 252.992 35.4343C252.622 35.3224 252.249 35.222 251.898 35.1684C251.552 35.1156 251.158 35.0961 250.772 35.2034C250.353 35.32 249.994 35.5729 249.744 35.9649C249.512 36.3281 249.405 36.7604 249.36 37.2068L250.272 37.2993ZM227.08 16.2051L226.216 16.5111L227.979 21.4921L228.843 21.1861L229.708 20.8801L227.944 15.8991L227.08 16.2051ZM228.843 21.1861L227.991 20.8476L223.612 31.871L224.464 32.2096L225.316 32.5481L229.696 21.5247L228.843 21.1861ZM224.464 32.2096L225.325 31.8928L219.433 15.8883L218.572 16.2051L217.712 16.5219L223.604 32.5264L224.464 32.2096ZM218.572 16.2051L219.43 15.8819C219.132 15.0908 218.946 14.5054 218.852 14.0699C218.754 13.6156 218.781 13.433 218.795 13.3877C218.797 13.3805 218.791 13.3991 218.771 13.42C218.754 13.4375 218.753 13.4301 218.797 13.4114C218.912 13.3635 219.139 13.3172 219.576 13.2929L219.525 12.3774L219.474 11.4618C219.009 11.4877 218.513 11.5427 218.091 11.7192C217.61 11.9197 217.213 12.2838 217.04 12.8567C216.889 13.3536 216.941 13.9081 217.06 14.4575C217.183 15.0256 217.406 15.7106 217.714 16.5283L218.572 16.2051ZM219.525 12.3774H220.442V11.7255H219.525H218.608V12.3774H219.525ZM219.525 11.7255V10.8085H209.964V11.7255V12.6424H219.525V11.7255ZM209.964 11.7255H209.047V12.3774H209.964H210.881V11.7255H209.964ZM209.964 12.3774L209.876 13.2901C210.391 13.3397 210.798 13.5308 211.246 14.0978C211.739 14.7224 212.252 15.7715 212.878 17.5175L213.742 17.208L214.605 16.8984C213.969 15.126 213.375 13.835 212.685 12.9615C211.95 12.0304 211.099 11.5655 210.052 11.4646L209.964 12.3774ZM213.742 17.208L212.88 17.5228L220.277 37.7562L221.138 37.4413L221.999 37.1265L214.603 16.8932L213.742 17.208ZM221.138 37.4413L221.671 38.1872C222.801 37.379 224.131 36.9035 225.517 36.5098L225.266 35.6278L225.016 34.7457C223.577 35.1543 221.999 35.6985 220.604 36.6955L221.138 37.4413ZM225.266 35.6278L226.162 35.4297C225.833 33.9413 226.296 32.1449 227.827 28.4305L226.98 28.081L226.132 27.7315C224.638 31.3549 223.898 33.6871 224.371 35.8258L225.266 35.6278ZM226.98 28.081L227.832 28.42L230.097 22.7286L229.245 22.3896L228.393 22.0506L226.128 27.742L226.98 28.081ZM229.245 22.3896L228.379 22.6932L233.661 37.745L234.527 37.4413L235.392 37.1377L230.11 22.086L229.245 22.3896ZM234.527 37.4413L234.934 38.2626C236.083 37.6921 237.585 37.1492 238.873 36.7554L238.605 35.8785L238.337 35.0016C237.001 35.4101 235.393 35.9871 234.119 36.6201L234.527 37.4413ZM238.605 35.8785L239.495 35.6571C239.315 34.9343 239.331 34.1314 239.582 33.0294C239.836 31.9122 240.317 30.5471 241.024 28.7113L240.168 28.3819L239.312 28.0524C238.606 29.8856 238.08 31.362 237.793 32.6225C237.503 33.8982 237.444 35.0091 237.715 36.0999L238.605 35.8785ZM240.168 28.3819L241.021 28.7166L245.501 17.292L244.647 16.9572L243.794 16.6225L239.314 28.0471L240.168 28.3819ZM244.647 16.9572L245.5 17.2937C246.133 15.6889 246.754 14.7157 247.352 14.1332C247.922 13.5773 248.501 13.3484 249.157 13.2908L249.077 12.3774L248.997 11.4639C247.94 11.5568 246.96 11.9547 246.072 12.8196C245.211 13.6578 244.473 14.8994 243.794 16.6208L244.647 16.9572ZM249.077 12.3774H249.994V11.7255H249.077H248.16V12.3774H249.077ZM249.077 11.7255V10.8085H240.519V11.7255V12.6424H249.077V11.7255ZM240.519 11.7255H239.602V12.3774H240.519H241.436V11.7255H240.519ZM240.519 12.3774L240.484 13.2936C241.675 13.3393 242.305 13.6772 242.585 14.0893C242.863 14.4972 243.014 15.2967 242.473 16.7963L243.335 17.1077L244.198 17.4191C244.818 15.701 244.869 14.1856 244.102 13.0578C243.337 11.9342 241.978 11.5157 240.554 11.4611L240.519 12.3774ZM243.335 17.1077L242.473 16.7946L236.932 32.0469L237.794 32.36L238.656 32.6731L244.197 17.4208L243.335 17.1077ZM237.794 32.36L238.658 32.0518L233.017 16.2478L232.153 16.5561L231.289 16.8643L236.931 32.6683L237.794 32.36ZM232.153 16.5561L233.019 16.2539C232.768 15.5367 232.636 14.9783 232.595 14.5498C232.554 14.1195 232.61 13.8816 232.672 13.7543C232.753 13.5869 233.004 13.3176 234.087 13.2941L234.067 12.3774L234.047 11.4606C232.815 11.4873 231.582 11.7989 231.022 12.954C230.763 13.488 230.709 14.0968 230.77 14.725C230.83 15.3551 231.011 16.0669 231.287 16.8583L232.153 16.5561ZM234.067 12.3774H234.984V11.7255H234.067H233.15V12.3774H234.067ZM234.067 11.7255V10.8085H224.356V11.7255V12.6424H234.067V11.7255ZM224.356 11.7255H223.439V12.3774H224.356H225.272V11.7255H224.356ZM224.356 12.3774L224.248 13.288C224.322 13.2967 224.549 13.3543 224.92 13.8553C225.291 14.3576 225.721 15.1954 226.212 16.5227L227.072 16.2051L227.932 15.8875C227.419 14.4986 226.918 13.4727 226.395 12.7652C225.871 12.0565 225.242 11.5584 224.463 11.4667L224.356 12.3774ZM193.7 20.9855H194.617C194.617 18.4398 195.261 16.3835 196.243 14.9909C197.217 13.6082 198.506 12.8932 199.893 12.8932V11.9762V11.0593C197.804 11.0593 195.996 12.1578 194.744 13.9342C193.498 15.7007 192.783 18.1491 192.783 20.9855H193.7ZM199.893 11.9762V12.8932C202.406 12.8932 204.258 15.175 204.258 18.4699H205.175H206.092C206.092 14.6109 203.816 11.0593 199.893 11.0593V11.9762ZM205.175 18.4699H204.258C204.258 19.2987 204.116 19.4815 203.949 19.6081C203.816 19.7083 203.585 19.8247 203.163 19.9439C202.744 20.0623 202.194 20.1684 201.461 20.2795L201.598 21.1861L201.736 22.0927C202.49 21.9782 203.131 21.8587 203.662 21.7088C204.189 21.5598 204.666 21.3654 205.056 21.0696C205.934 20.4044 206.092 19.4548 206.092 18.4699H205.175ZM201.598 21.1861L201.442 20.2827L193.586 21.6449L193.742 22.5484L193.899 23.4518L201.755 22.0896L201.598 21.1861ZM193.742 22.5484L194.659 22.519L194.609 20.9561L193.692 20.9855L192.776 21.0149L192.826 22.5778L193.742 22.5484ZM193.692 20.9855V21.9025H193.7V20.9855V20.0686H193.692V20.9855ZM200.854 37.55V38.4669C206.098 38.4669 210.234 34.977 211.898 29.8254L211.025 29.5436L210.153 29.2617C208.691 33.788 205.172 36.633 200.854 36.633V37.55ZM211.025 29.5436L211.435 28.7234L211.135 28.573L210.725 29.3931L210.314 30.2133L210.615 30.3637L211.025 29.5436ZM210.725 29.3931L209.902 28.9879C208.647 31.535 206.204 33.0059 203.428 33.0059V33.9229V34.8398C206.888 34.8398 209.977 32.9844 211.547 29.7984L210.725 29.3931ZM203.428 33.9229V33.0059C200.831 33.0059 198.845 31.9029 197.407 30.1359C195.949 28.3445 195.041 25.8452 194.729 23.0968L193.817 23.2003L192.906 23.3037C193.246 26.2969 194.247 29.1589 195.984 31.2934C197.741 33.4523 200.234 34.8398 203.428 34.8398V33.9229ZM193.817 23.2003L193.937 24.1094L210.752 21.8946L210.633 20.9855L210.513 20.0764L193.698 22.2912L193.817 23.2003ZM210.633 20.9855L211.549 20.9583C211.443 17.3898 210.249 14.6584 208.267 12.8233C206.292 10.9959 203.634 10.1483 200.762 10.1483V11.0653V11.9822C203.281 11.9822 205.458 12.7225 207.021 14.1692C208.576 15.6081 209.622 17.8368 209.716 21.0128L210.633 20.9855ZM200.762 11.0653V10.1483C193.365 10.1483 188.12 16.2516 188.12 24.153H189.037H189.954C189.954 17.0612 194.57 11.9822 200.762 11.9822V11.0653ZM189.037 24.153H188.12C188.12 32.0419 193.555 38.4586 200.863 38.4586V37.5416V36.6247C194.782 36.6247 189.954 31.2574 189.954 24.153H189.037ZM181.323 37.7506L181.906 38.4584C182.242 38.1818 182.925 37.7798 183.792 37.3732C184.643 36.9742 185.601 36.6036 186.448 36.3695L186.204 35.4857L185.959 34.6019C184.993 34.8693 183.937 35.2801 183.014 35.7127C182.107 36.1376 181.257 36.6173 180.74 37.0427L181.323 37.7506ZM186.204 35.4857L187.02 35.0669C186.305 33.6755 185.961 32.0729 186.009 29.7126L185.092 29.694L184.176 29.6753C184.123 32.246 184.498 34.1702 185.388 35.9045L186.204 35.4857ZM185.092 29.694L186.009 29.7054L186.31 5.54404L185.393 5.53263L184.476 5.52121L184.175 29.6826L185.092 29.694ZM185.393 5.53263H186.31C186.31 4.12334 186.635 3.41421 187.089 3.00699C187.577 2.56921 188.415 2.29202 189.868 2.21957L189.823 1.30376L189.777 0.387955C188.213 0.465939 186.837 0.769584 185.864 1.64184C184.858 2.54465 184.476 3.87473 184.476 5.53263H185.393ZM189.823 1.30376H190.74V0.65188H189.823H188.906V1.30376H189.823ZM189.823 0.65188V-0.265063H178.849V0.65188V1.56882H189.823V0.65188ZM178.849 0.65188H177.932V1.30376H178.849H179.766V0.65188H178.849ZM178.849 1.30376L178.812 2.21996C180.645 2.29393 181.749 2.58068 182.394 3.05609C182.959 3.47269 183.314 4.14825 183.314 5.48248H184.231H185.148C185.148 3.79968 184.677 2.46109 183.482 1.5802C182.368 0.758121 180.781 0.464027 178.886 0.387563L178.849 1.30376ZM184.231 5.48248L183.314 5.48072L183.264 31.6061L184.181 31.6078L185.098 31.6096L185.148 5.48424L184.231 5.48248ZM184.181 31.6078L184.954 31.1142L165.18 0.158274L164.408 0.65188L163.635 1.14549L183.409 32.1015L184.181 31.6078ZM164.408 0.65188V-0.265063H154.646V0.65188V1.56882H164.408V0.65188ZM154.646 0.65188H153.729V1.30376H154.646H155.563V0.65188H154.646ZM154.646 1.30376L154.604 2.21973C156.195 2.29296 157.114 2.57504 157.639 3.01856C158.11 3.41719 158.432 4.0976 158.409 5.46724L159.326 5.48248L160.243 5.49772C160.27 3.85033 159.886 2.51659 158.822 1.61773C157.811 0.763754 156.365 0.464993 154.688 0.387788L154.646 1.30376ZM159.326 5.48248L158.409 5.47382L158.159 32.0003L159.076 32.009L159.992 32.0177L160.243 5.49115L159.326 5.48248ZM159.076 32.009L158.159 31.994C158.136 33.3863 157.788 34.0873 157.272 34.5036C156.701 34.9649 155.723 35.2484 154.054 35.3218L154.095 36.2379L154.135 37.1539C155.884 37.0769 157.372 36.7795 158.424 35.9308C159.531 35.0372 159.965 33.6989 159.992 32.024L159.076 32.009ZM154.095 36.2379H153.178V36.8897H154.095H155.011V36.2379H154.095ZM154.095 36.8897V37.8067H165.519V36.8897V35.9728H154.095V36.8897ZM165.519 36.8897H166.436V36.2379H165.519H164.602V36.8897H165.519ZM165.519 36.2379L165.558 35.3218C163.832 35.2481 162.81 34.9636 162.212 34.4992C161.678 34.0847 161.327 33.3987 161.304 32.0439L160.388 32.0591L159.471 32.0744C159.498 33.7366 159.95 35.0648 161.087 35.9478C162.161 36.7809 163.679 37.0772 165.48 37.154L165.519 36.2379ZM160.388 32.0591L161.305 32.0524L161.104 4.61496L160.187 4.62167L159.27 4.62837L159.471 32.0659L160.388 32.0591ZM160.187 4.62167L159.414 5.11507L180.559 38.2356L181.331 37.7422L182.104 37.2488L160.96 4.12826L160.187 4.62167ZM181.331 37.7422L180.684 37.0933L180.675 37.1017L181.323 37.7506L181.971 38.3994L181.979 38.3911L181.331 37.7422ZM137.53 20.9855H138.447C138.447 18.4398 139.09 16.3835 140.072 14.9909C141.047 13.6082 142.336 12.8932 143.723 12.8932V11.9762V11.0593C141.633 11.0593 139.826 12.1578 138.573 13.9342C137.328 15.7007 136.613 18.1491 136.613 20.9855H137.53ZM143.723 11.9762V12.8932C146.236 12.8932 148.088 15.175 148.088 18.4699H149.005H149.922C149.922 14.6109 147.645 11.0593 143.723 11.0593V11.9762ZM149.005 18.4699H148.088C148.088 19.2987 147.945 19.4815 147.778 19.6081C147.646 19.7083 147.415 19.8247 146.993 19.9439C146.574 20.0623 146.023 20.1684 145.29 20.2795L145.428 21.1861L145.565 22.0927C146.32 21.9782 146.96 21.8587 147.491 21.7088C148.019 21.5598 148.496 21.3654 148.886 21.0696C149.764 20.4044 149.922 19.4548 149.922 18.4699H149.005ZM145.428 21.1861L145.271 20.2827L137.415 21.6449L137.572 22.5484L137.729 23.4518L145.585 22.0896L145.428 21.1861ZM137.572 22.5484L138.488 22.519L138.438 20.9561L137.522 20.9855L136.605 21.0149L136.655 22.5778L137.572 22.5484ZM137.522 20.9855V21.9025H137.53V20.9855V20.0686H137.522V20.9855ZM144.676 37.55V38.4669C149.919 38.4669 154.055 34.977 155.719 29.8254L154.847 29.5436L153.974 29.2617C152.512 33.788 148.993 36.633 144.676 36.633V37.55ZM154.847 29.5436L155.257 28.7234L154.956 28.573L154.546 29.3931L154.136 30.2133L154.437 30.3637L154.847 29.5436ZM154.546 29.3931L153.723 28.9879C152.468 31.535 150.025 33.0059 147.25 33.0059V33.9229V34.8398C150.709 34.8398 153.799 32.9844 155.368 29.7984L154.546 29.3931ZM147.25 33.9229V33.0059C144.652 33.0059 142.666 31.9029 141.228 30.1359C139.77 28.3445 138.862 25.8452 138.55 23.0968L137.639 23.2003L136.728 23.3037C137.067 26.2969 138.069 29.1589 139.806 31.2934C141.562 33.4523 144.056 34.8398 147.25 34.8398V33.9229ZM137.639 23.2003L137.758 24.1094L154.574 21.8946L154.454 20.9855L154.334 20.0764L137.519 22.2912L137.639 23.2003ZM154.454 20.9855L155.37 20.9583C155.264 17.3898 154.071 14.6584 152.088 12.8233C150.114 10.9959 147.455 10.1483 144.584 10.1483V11.0653V11.9822C147.103 11.9822 149.279 12.7225 150.842 14.1692C152.397 15.6081 153.443 17.8368 153.537 21.0128L154.454 20.9855ZM144.584 11.0653V10.1483C137.187 10.1483 131.941 16.2516 131.941 24.153H132.858H133.775C133.775 17.0612 138.392 11.9822 144.584 11.9822V11.0653ZM132.858 24.153H131.941C131.941 32.0419 137.376 38.4586 144.684 38.4586V37.5416V36.6247C138.603 36.6247 133.775 31.2574 133.775 24.153H132.858ZM121.517 37.55V38.4669C126.813 38.4669 131.228 35.1772 132.959 29.984L132.089 29.694L131.219 29.404C129.725 33.8887 125.982 36.633 121.517 36.633V37.55ZM132.089 29.694L132.535 28.8924L132.083 28.6417L131.638 29.4433L131.193 30.2448L131.644 30.4955L132.089 29.694ZM131.638 29.4433L130.811 29.0476C129.354 32.0936 126.498 32.9558 124.292 32.9558V33.8727V34.7897C126.916 34.7897 130.596 33.7463 132.465 29.839L131.638 29.4433ZM124.292 33.8727V32.9558C121.863 32.9558 119.774 31.9198 118.271 30.0035C116.754 28.0705 115.798 25.19 115.798 21.487H114.881H113.964C113.964 25.4896 114.997 28.8019 116.828 31.1354C118.672 33.4856 121.288 34.7897 124.292 34.7897V33.8727ZM114.881 21.487H115.798C115.798 18.7619 116.491 16.5804 117.601 15.1046C118.697 13.6477 120.219 12.843 122.027 12.843V11.9261V11.0091C119.607 11.0091 117.556 12.1141 116.136 14.0023C114.73 15.8715 113.964 18.4705 113.964 21.487H114.881ZM122.027 11.9261V12.843C123.515 12.843 124.455 13.3037 125.018 13.8534C125.592 14.4143 125.84 15.1304 125.84 15.7538H126.757H127.674C127.674 14.6639 127.246 13.4661 126.299 12.5415C125.341 11.6056 123.915 11.0091 122.027 11.0091V11.9261ZM126.757 15.7538H125.84C125.84 16.3058 125.707 16.7652 125.531 17.3244C125.363 17.8617 125.138 18.5363 125.138 19.3308H126.055H126.972C126.972 18.8632 127.099 18.4555 127.281 17.8729C127.457 17.3122 127.674 16.6141 127.674 15.7538H126.757ZM126.055 19.3308H125.138C125.138 20.3428 125.473 21.2332 126.121 21.8714C126.765 22.5066 127.639 22.8134 128.571 22.8134V21.8965V20.9796C128.04 20.9796 127.656 20.81 127.408 20.5656C127.164 20.3242 126.972 19.9317 126.972 19.3308H126.055ZM128.571 21.8965V22.8134C129.582 22.8134 130.519 22.3707 131.186 21.5577C131.846 20.7535 132.204 19.6383 132.204 18.3195H131.287H130.37C130.37 19.3157 130.101 19.9891 129.769 20.3946C129.443 20.7913 129.022 20.9796 128.571 20.9796V21.8965ZM131.287 18.3195H132.204C132.204 14.2415 128.317 10.1567 122.328 10.1567V11.0736V11.9906C127.505 11.9906 130.37 15.4441 130.37 18.3195H131.287ZM122.328 11.0736V10.1567C114.73 10.1567 109.226 16.6609 109.226 24.5625H110.143H111.06C111.06 17.4709 115.935 11.9906 122.328 11.9906V11.0736ZM110.143 24.5625H109.226C109.226 32.4374 114.147 38.4669 121.517 38.4669V37.55V36.633C115.398 36.633 111.06 31.6809 111.06 24.5625H110.143ZM99.1193 36.8897V37.8067H110.143V36.8897V35.9728H99.1193V36.8897ZM110.143 36.8897H111.06V36.2379H110.143H109.226V36.8897H110.143ZM110.143 36.2379L110.209 35.3234C109.254 35.2538 108.744 35.0426 108.455 34.7568C108.181 34.4854 107.942 33.9806 107.942 32.9116H107.025H106.108C106.108 34.2161 106.396 35.2992 107.165 36.06C107.919 36.8064 108.967 37.0716 110.076 37.1524L110.143 36.2379ZM107.025 32.9116H107.942V18.5619H107.025H106.108V32.9116H107.025ZM107.025 18.5619H107.942C107.942 15.8623 107.294 13.7381 106 12.2804C104.69 10.8059 102.84 10.1483 100.732 10.1483V11.0653V11.9822C102.452 11.9822 103.749 12.5072 104.629 13.4982C105.524 14.5058 106.108 16.13 106.108 18.5619H107.025ZM100.732 11.0653V10.1483C96.4542 10.1483 92.718 13.0147 90.4997 17.5038L91.3218 17.91L92.1438 18.3162C94.1545 14.2473 97.3549 11.9822 100.732 11.9822V11.0653ZM91.3218 17.91V16.9931H91.071V17.91V18.8269H91.3218V17.91ZM91.071 17.91L91.9845 17.9903L92.5862 11.1456L91.6728 11.0653L90.7594 10.985L90.1576 17.8297L91.071 17.91ZM91.6728 11.0653V10.1483H91.4722V11.0653V11.9822H91.6728V11.0653ZM91.4722 11.0653L91.2283 10.1814L83.0213 12.4462L83.2652 13.3301L83.5091 14.214L91.7161 11.9492L91.4722 11.0653ZM83.2652 13.3301L82.3589 13.4695L82.4592 14.1214L83.3655 13.982L84.2718 13.8426L84.1715 13.1907L83.2652 13.3301ZM83.3655 13.982L83.5243 14.8851C84.6851 14.6809 85.0806 14.9198 85.2499 15.1111C85.4897 15.382 85.6662 15.9597 85.6662 17.0993H86.5831H87.5C87.5 15.9239 87.3505 14.7173 86.623 13.8955C85.8249 12.994 84.6116 12.8318 83.2066 13.0789L83.3655 13.982ZM86.5831 17.0993H85.6662V32.6525H86.5831H87.5V17.0993H86.5831ZM86.5831 32.6525H85.6662C85.6662 33.8958 85.4429 34.4734 85.1754 34.7688C84.9217 35.0488 84.4518 35.267 83.4243 35.3135L83.4658 36.2295L83.5073 37.1455C84.6945 37.0918 85.7832 36.8294 86.5345 36C87.272 35.1858 87.5 34.0251 87.5 32.6525H86.5831ZM83.4658 36.2295H82.5488V36.8814H83.4658H84.3827V36.2295H83.4658ZM83.4658 36.8814V37.7983H94.8403V36.8814V35.9644H83.4658V36.8814ZM94.8403 36.8814H95.7572V36.2295H94.8403H93.9233V36.8814H94.8403ZM94.8403 36.2295L94.9024 35.3147C93.8606 35.2439 93.313 35.0272 93.0093 34.7371C92.7281 34.4683 92.4894 33.9727 92.4894 32.9033H91.5725H90.6555C90.6555 34.2073 90.9434 35.2996 91.7424 36.063C92.5189 36.805 93.6052 37.0647 94.7781 37.1443L94.8403 36.2295ZM91.5725 32.9033H92.4894V19.0132H91.5725H90.6555V32.9033H91.5725ZM91.5725 19.0132L92.3835 19.4411C94.1678 16.0594 96.5508 15.1497 97.8656 15.1497V14.2327V13.3158C95.754 13.3158 92.8049 14.7127 90.7615 18.5853L91.5725 19.0132ZM97.8656 14.2327V15.1497C98.9161 15.1497 99.6709 15.4768 100.188 16.1102C100.732 16.7759 101.127 17.9187 101.127 19.7737H102.044H102.961C102.961 17.7007 102.525 16.073 101.609 14.9503C100.665 13.7952 99.3308 13.3158 97.8656 13.3158V14.2327ZM102.044 19.7737H101.127V32.6609H102.044H102.961V19.7737H102.044ZM102.044 32.6609H101.127C101.127 33.9121 100.914 34.5013 100.661 34.7991C100.435 35.066 100.021 35.2765 99.0831 35.322L99.1276 36.2379L99.1721 37.1537C100.299 37.099 101.343 36.8289 102.059 35.9863C102.748 35.1747 102.961 34.0255 102.961 32.6609H102.044ZM99.1276 36.2379H98.2107V36.8897H99.1276H100.045V36.2379H99.1276ZM99.1276 36.8897V35.9728H99.1193V36.8897V37.8067H99.1276V36.8897ZM66.0489 20.9855H66.9658C66.9658 18.4398 67.6091 16.3835 68.591 14.9909C69.5658 13.6082 70.8545 12.8932 72.2417 12.8932V11.9762V11.0593C70.1523 11.0593 68.3445 12.1578 67.0921 13.9342C65.8467 15.7007 65.1319 18.1491 65.1319 20.9855H66.0489ZM72.2417 11.9762V12.8932C74.7545 12.8932 76.6067 15.175 76.6067 18.4699H77.5236H78.4406C78.4406 14.6109 76.1642 11.0593 72.2417 11.0593V11.9762ZM77.5236 18.4699H76.6067C76.6067 19.2987 76.464 19.4815 76.297 19.6081C76.1649 19.7083 75.9337 19.8247 75.5115 19.9439C75.0926 20.0623 74.5421 20.1684 73.8091 20.2795L73.9466 21.1861L74.0842 22.0927C74.8388 21.9782 75.4793 21.8587 76.01 21.7088C76.5374 21.5598 77.0145 21.3654 77.4048 21.0696C78.2824 20.4044 78.4406 19.4548 78.4406 18.4699H77.5236ZM73.9466 21.1861L73.79 20.2827L65.934 21.6449L66.0907 22.5484L66.2473 23.4518L74.1033 22.0896L73.9466 21.1861ZM66.0907 22.5484L67.0071 22.519L66.957 20.9561L66.0405 20.9855L65.124 21.0149L65.1742 22.5778L66.0907 22.5484ZM66.0405 20.9855V21.9025H66.0489V20.9855V20.0686H66.0405V20.9855ZM73.1945 37.55V38.4669C78.4379 38.4669 82.5742 34.977 84.238 29.8254L83.3655 29.5436L82.4929 29.2617C81.0311 33.788 77.512 36.633 73.1945 36.633V37.55ZM83.3655 29.5436L83.7756 28.7234L83.4747 28.573L83.0646 29.3931L82.6545 30.2133L82.9554 30.3637L83.3655 29.5436ZM83.0646 29.3931L82.2421 28.9879C80.9871 31.535 78.5436 33.0059 75.7686 33.0059V33.9229V34.8398C79.2282 34.8398 82.3173 32.9844 83.8871 29.7984L83.0646 29.3931ZM75.7686 33.9229V33.0059C73.171 33.0059 71.1847 31.9029 69.7468 30.1359C68.2891 28.3445 67.3806 25.8452 67.0686 23.0968L66.1575 23.2003L65.2464 23.3037C65.5863 26.2969 66.5875 29.1589 68.3244 31.2934C70.0812 33.4523 72.5744 34.8398 75.7686 34.8398V33.9229ZM66.1575 23.2003L66.2773 24.1094L83.0924 21.8946L82.9727 20.9855L82.8529 20.0764L66.0378 22.2912L66.1575 23.2003ZM82.9727 20.9855L83.8892 20.9583C83.7831 17.3898 82.5894 14.6584 80.6067 12.8233C78.6324 10.9959 75.9742 10.1483 73.1025 10.1483V11.0653V11.9822C75.6214 11.9822 77.798 12.7225 79.361 14.1692C80.9156 15.6081 81.9617 17.8368 82.0561 21.0128L82.9727 20.9855ZM73.1025 11.0653V10.1483C65.7056 10.1483 60.4601 16.2516 60.4601 24.153H61.3771H62.294C62.294 17.0612 66.9103 11.9822 73.1025 11.9822V11.0653ZM61.3771 24.153H60.4601C60.4601 32.0419 65.895 38.4586 73.2028 38.4586V37.5416V36.6247C67.122 36.6247 62.294 31.2574 62.294 24.153H61.3771ZM55.3263 7.04532V7.96227C57.5692 7.96227 59.4608 6.16582 59.4608 3.928H58.5439H57.6269C57.6269 5.10001 56.6102 6.12838 55.3263 6.12838V7.04532ZM58.5439 3.928H59.4608C59.4608 1.7259 57.5969 -0.206561 55.3263 -0.206561V0.710382V1.62733C56.5657 1.62733 57.6269 2.72026 57.6269 3.928H58.5439ZM55.3263 0.710382V-0.206561C53.1552 -0.206561 51.2419 1.66807 51.2419 3.928H52.1588H53.0757C53.0757 2.6778 54.1711 1.62733 55.3263 1.62733V0.710382ZM52.1588 3.928H51.2419C51.2419 6.21779 53.1437 7.96227 55.3263 7.96227V7.04532V6.12838C54.099 6.12838 53.0757 5.14833 53.0757 3.928H52.1588ZM50.0444 36.8897V37.8067H61.118V36.8897V35.9728H50.0444V36.8897ZM61.118 36.8897H62.0349V36.2379H61.118H60.201V36.8897H61.118ZM61.118 36.2379L61.1863 35.3235C60.2606 35.2543 59.7996 35.0461 59.5442 34.7771C59.2911 34.5105 59.068 34.0017 59.068 32.9116H58.1511H57.2341C57.2341 34.195 57.4874 35.2741 58.2142 36.0397C58.9388 36.8029 59.9612 37.071 61.0497 37.1523L61.118 36.2379ZM58.1511 32.9116H59.068V11.0653H58.1511H57.2341V32.9116H58.1511ZM58.1511 11.0653V10.1483H57.9505V11.0653V11.9822H58.1511V11.0653ZM57.9505 11.0653L57.7024 10.1825L49.6458 12.4474L49.8939 13.3301L50.1421 14.2128L58.1987 11.948L57.9505 11.0653ZM49.8939 13.3301H48.977V13.982H49.8939H50.8109V13.3301H49.8939ZM49.8939 13.982L49.9867 14.8942C51.106 14.7804 51.5618 15.0052 51.7813 15.241C52.0403 15.5192 52.2447 16.0902 52.2447 17.2498H53.1617H54.0786C54.0786 15.994 53.8819 14.8058 53.1234 13.9913C52.3254 13.1343 51.1473 12.9329 49.8012 13.0698L49.8939 13.982ZM53.1617 17.2498H52.2447V32.6525H53.1617H54.0786V17.2498H53.1617ZM53.1617 32.6525H52.2447C52.2447 33.8958 52.0215 34.4734 51.754 34.7688C51.5003 35.0488 51.0304 35.267 50.0029 35.3135L50.0444 36.2295L50.0858 37.1455C51.2731 37.0918 52.3618 36.8294 53.1131 36C53.8506 35.1858 54.0786 34.0251 54.0786 32.6525H53.1617ZM50.0444 36.2295H49.1274V36.8814H50.0444H50.9613V36.2295H50.0444ZM50.0444 36.8814H49.1274V36.8897H50.0444H50.9613V36.8814H50.0444ZM39.1713 37.55V38.4669C44.4676 38.4669 48.8823 35.1772 50.6134 29.984L49.7435 29.694L48.8736 29.404C47.3787 33.8887 43.6366 36.633 39.1713 36.633V37.55ZM49.7435 29.694L50.1888 28.8924L49.7375 28.6417L49.2922 29.4433L48.8469 30.2448L49.2982 30.4955L49.7435 29.694ZM49.2922 29.4433L48.465 29.0476C47.0079 32.0936 44.1523 32.9558 41.946 32.9558V33.8727V34.7897C44.5703 34.7897 48.2502 33.7463 50.1194 29.839L49.2922 29.4433ZM41.946 33.8727V32.9558C39.5173 32.9558 37.4285 31.9198 35.9251 30.0035C34.4086 28.0705 33.4525 25.19 33.4525 21.487H32.5355H31.6186C31.6186 25.4896 32.6515 28.8019 34.4822 31.1354C36.326 33.4856 38.9424 34.7897 41.946 34.7897V33.8727ZM32.5355 21.487H33.4525C33.4525 18.7619 34.1454 16.5804 35.2553 15.1046C36.3509 13.6477 37.8727 12.843 39.6811 12.843V11.9261V11.0091C37.2607 11.0091 35.2097 12.1141 33.7897 14.0023C32.384 15.8715 31.6186 18.4705 31.6186 21.487H32.5355ZM39.6811 11.9261V12.843C41.1695 12.843 42.1089 13.3037 42.6718 13.8534C43.246 14.4143 43.4945 15.1304 43.4945 15.7538H44.4114H45.3284C45.3284 14.6639 44.8999 13.4661 43.9531 12.5415C42.9949 11.6056 41.5692 11.0091 39.6811 11.0091V11.9261ZM44.4114 15.7538H43.4945C43.4945 16.3058 43.3607 16.7652 43.1855 17.3244C43.0171 17.8617 42.7925 18.5363 42.7925 19.3308H43.7094H44.6264C44.6264 18.8632 44.7528 18.4555 44.9354 17.8729C45.1111 17.3122 45.3284 16.6141 45.3284 15.7538H44.4114ZM43.7094 19.3308H42.7925C42.7925 20.3428 43.1276 21.2332 43.775 21.8714C44.4192 22.5066 45.2929 22.8134 46.225 22.8134V21.8965V20.9796C45.6946 20.9796 45.3104 20.81 45.0625 20.5656C44.8178 20.3242 44.6264 19.9317 44.6264 19.3308H43.7094ZM46.225 21.8965V22.8134C47.2363 22.8134 48.1735 22.3707 48.8405 21.5577C49.5002 20.7535 49.8581 19.6383 49.8581 18.3195H48.9412H48.0242C48.0242 19.3157 47.7553 19.9891 47.4226 20.3946C47.0971 20.7913 46.6763 20.9796 46.225 20.9796V21.8965ZM48.9412 18.3195H49.8581C49.8581 14.2415 45.9708 10.1567 39.982 10.1567V11.0736V11.9906C45.1587 11.9906 48.0242 15.4441 48.0242 18.3195H48.9412ZM39.982 11.0736V10.1567C32.3846 10.1567 26.8799 16.6609 26.8799 24.5625H27.7969H28.7138C28.7138 17.4709 33.5891 11.9906 39.982 11.9906V11.0736ZM27.7969 24.5625H26.8799C26.8799 32.4374 31.8012 38.4669 39.1713 38.4669V37.55V36.633C33.0526 36.633 28.7138 31.6809 28.7138 24.5625H27.7969ZM13.397 37.55V38.4669C20.2983 38.4669 26.0896 34.1652 26.0896 27.1784H25.1726H24.2557C24.2557 32.8782 19.5834 36.633 13.397 36.633V37.55ZM25.1726 27.1784H26.0896C26.0896 24.3053 25.3662 22.0771 23.5485 20.1184C21.7854 18.2185 19.0451 16.6335 15.1819 14.8695L14.801 15.7036L14.4202 16.5377C18.2625 18.2922 20.708 19.7535 22.2043 21.3659C23.646 22.9194 24.2557 24.6694 24.2557 27.1784H25.1726ZM14.801 15.7036L15.188 14.8723C11.6185 13.2108 9.24951 11.8733 7.77317 10.5505C6.349 9.27449 5.79769 8.0532 5.79769 6.54388H4.88075H3.9638C3.9638 8.65333 4.79983 10.3488 6.5494 11.9164C8.24679 13.4372 10.8379 14.8702 14.4141 16.5349L14.801 15.7036ZM4.88075 6.54388H5.79769C5.79769 5.14039 6.35373 3.95691 7.31085 3.11381C8.27532 2.26425 9.69728 1.71926 11.4748 1.71926V0.802314V-0.114629C9.32425 -0.114629 7.44921 0.548031 6.09866 1.73768C4.74077 2.9338 3.9638 4.6211 3.9638 6.54388H4.88075ZM11.4748 0.802314V1.71926C15.495 1.71926 20.5829 5.06704 22.4101 12.4961L23.3005 12.2771L24.191 12.0581C22.2072 3.99243 16.514 -0.114629 11.4748 -0.114629V0.802314ZM23.3005 12.2771V13.194H23.9524V12.2771V11.3601H23.3005V12.2771ZM23.9524 12.2771L24.8664 12.2038L23.9137 0.327831L22.9997 0.401157L22.0857 0.474484L23.0384 12.3504L23.9524 12.2771ZM22.9997 0.401157V-0.515786H22.3979V0.401157V1.3181H22.9997V0.401157ZM22.3979 0.401157L21.4817 0.364751C21.4596 0.921638 21.3504 1.11641 21.3144 1.16196C21.3047 1.17419 21.3025 1.17441 21.2966 1.17681C21.2837 1.18218 21.2376 1.19749 21.136 1.19749V2.11443V3.03138C21.7121 3.03138 22.3179 2.84902 22.7523 2.30011C23.1446 1.80452 23.2861 1.14265 23.3142 0.437563L22.3979 0.401157ZM21.136 2.11443V1.19749C20.9032 1.19749 20.5025 1.10994 19.8587 0.908826C19.1886 0.699488 18.5643 0.472999 17.6595 0.183808C15.9798 -0.353112 13.8841 -0.916943 11.6252 -0.916943V0V0.916943C13.5952 0.916943 15.4734 1.41033 17.1012 1.93063C17.8502 2.17004 18.7129 2.47216 19.3118 2.65928C19.9371 2.85462 20.5874 3.03138 21.136 3.03138V2.11443ZM11.6252 0V-0.916943C4.34869 -0.916943 -0.064484 4.09944 -0.064484 9.71135H0.852459H1.7694C1.7694 5.1606 5.31251 0.916943 11.6252 0.916943V0ZM0.852459 9.71135H-0.064484C-0.064484 12.4525 0.707187 14.6094 2.41635 16.4675C4.08181 18.2781 6.58954 19.7502 9.93397 21.2688L10.3131 20.4339L10.6922 19.599C7.39246 18.1007 5.16988 16.7521 3.76607 15.226C2.40596 13.7474 1.7694 12.0515 1.7694 9.71135H0.852459ZM10.3131 20.4339L9.92435 21.2644C13.8722 23.1123 16.4238 24.4492 17.9997 25.7956C18.7707 26.4543 19.2764 27.0905 19.595 27.759C19.9122 28.4247 20.0686 29.174 20.0686 30.0952H20.9855H21.9025C21.9025 28.9562 21.7068 27.9275 21.2505 26.97C20.7955 26.0153 20.106 25.1832 19.1909 24.4013C17.3946 22.8665 14.61 21.4328 10.7018 19.6035L10.3131 20.4339ZM20.9855 30.0952H20.0686C20.0686 33.5686 17.1552 35.8224 13.5892 35.8224V36.7393V37.6563C17.8625 37.6563 21.9025 34.8621 21.9025 30.0952H20.9855ZM13.5892 36.7393V35.8224C11.4835 35.8224 8.91023 34.5613 6.60244 32.2355C4.31526 29.9304 2.38928 26.6734 1.54679 22.9002L0.651881 23.1L-0.243027 23.2998C0.677906 27.4243 2.78021 30.987 5.30065 33.5272C7.80048 36.0465 10.8142 37.6563 13.5892 37.6563V36.7393ZM0.651881 23.1V22.183H0V23.1V24.0169H0.651881V23.1ZM0 23.1L-0.912596 23.1891L0.449667 37.1294L1.36226 37.0402L2.27486 36.951L0.912596 23.0108L0 23.1ZM1.36226 37.0402V37.9571H1.964V37.0402V36.1232H1.36226V37.0402ZM1.964 37.0402L2.88047 37.0696C2.90379 36.3429 3.03346 36.0729 3.09999 35.9882C3.11609 35.9677 3.15945 35.8928 3.4767 35.8928V34.9759V34.059C2.83284 34.059 2.14492 34.2348 1.65748 34.8558C1.22048 35.4125 1.07436 36.1746 1.04753 37.0108L1.964 37.0402ZM3.4767 34.9759V35.8928C3.76671 35.8928 4.19955 35.9995 4.85334 36.2381C5.52011 36.4815 6.18902 36.7708 7.08698 37.115C8.79475 37.7695 10.9341 38.4586 13.397 38.4586V37.5416V36.6247C11.2716 36.6247 9.38269 36.0309 7.7433 35.4026C6.96768 35.1053 6.1333 34.7531 5.4822 34.5154C4.81812 34.273 4.11854 34.059 3.4767 34.059V34.9759Z" fill="#949494" mask="url(#path-1-inside-1_415_549)"/>
</svg>
